<svg xmlns="http://www.w3.org/2000/svg" aria-hidden="true" tabindex="-1" disabled="" class="___SIcon_12eia_gg_" data-ui-name="Facebook" width="16" height="16" viewBox="0 0 16 16" data-name="Facebook" data-group="m"><path d="M5.969 9v5.5a.5.5 0 0 0 .5.5h2a.5.5 0 0 0 .5-.5V9h1.217a.5.5 0 0 0 .429-.242l1.297-2.151A.4.4 0 0 0 11.569 6h-2.6v-.984c0-.73.16-1.5 1.312-1.5h1.188a.5.5 0 0 0 .5-.5V1.5a.5.5 0 0 0-.5-.5H9.297C7.177 1 6 2.454 6 4.766L5.969 6H4.5a.5.5 0 0 0-.5.5v2a.5.5 0 0 0 .5.5h1.469Z" shape-rendering="geometricPrecision"/></svg>